# xmcd
#
# Track frame offsets:
#	150
#	9857
#	21256
#	30505
#	42270
#	52506
#	67695
#	79960
#	90569
#	103499
#	112846
#	124702
#	136710
#	146747
#	155548
#	167539
#	177401
#	191480
#	201489
#	212488
#	223859
#	235046
#	244297
#	255439
#	266385
#	276749
#	287988
#	298083
#	311020
#	319384
#	329917
#
# Disc length: 4558 seconds
#
# Revision: 1
# Processed by: cddbd v1.5.2PL0 Copyright (c) Steve Scherf et al.
# Submitted via: audiograbber 1.83.01
#
DISCID=ce11cc1f
DTITLE=Ike Turner - Jack Rabbit Blues - The singles 1958-1960
DYEAR=2011
DGENRE=
TTITLE0=Ike Turner,Carlson Oliver&Little Ann - Box Top
TTITLE1=Ike Turner Orchestra ft. Fred Sample - Chalypso Love Cry
TTITLE2=Kenneth Churchill,The Lyrics&Ike Turner Orchestra - Fate of rock and ro
TTITLE2=ll
TTITLE3=Kenneth Churchill,The Lyrics&Ike Turner Orchestra - Would you rather
TTITLE4=Chuck Bernard&His Blue Notes - Call your name
TTITLE5=Chuck Bernard&His Blue Notes - Everytime I think of you
TTITLE6=Otis Rush&His Band - Double trouble
TTITLE7=Otis Rush&His Band - Keep on loving me baby
TTITLE8=Betty Everett&the Willie Dixon Band - I'll weep no more
TTITLE9=Betty Everett&the Willie Dixon Band - Tell me darling
TTITLE10=Otis Rush&His Band - All your love (I miss loving)
TTITLE11=Otis Rush&His Band - My baby is a good 'un
TTITLE12=Ike Turner's Kings Of Rhythm - Walking down the aisle
TTITLE13=Ike Turner's Kings Of Rhythm - Box Top
TTITLE14=Buddy Guy - You sure can't do
TTITLE15=Ike Turner's Kings Of Rhythm - (I know) You don't love me
TTITLE16=Ike Turner's Kings Of Rhythm - Down and out
TTITLE17=Icky Renrut - In your eyes baby
TTITLE18=Icky Renrut - Jack Rabbit
TTITLE19=Bobby Foster - Angel of love
TTITLE20=Bobby Foster - Star above
TTITLE21=Icky Renrut - Hey...hey
TTITLE22=Icky Renrut - Ho...ho
TTITLE23=Ike Turner's Kings Of Rhythm - That's all I need
TTITLE24=Ike Turner's Kings Of Rhythm - My love
TTITLE25=Art Lassiter - It's alright
TTITLE26=Art Lassiter - My loneliness
TTITLE27=Ike&TinaTurner - A fool in love
TTITLE28=Ike&TinaTurner - The way you love me
TTITLE29=Ike&TinaTurner - You're my baby
TTITLE30=Ike&TinaTurner - A fool too long
EXTD=
EXTT0=
EXTT1=
EXTT2=
EXTT3=
EXTT4=
EXTT5=
EXTT6=
EXTT7=
EXTT8=
EXTT9=
EXTT10=
EXTT11=
EXTT12=
EXTT13=
EXTT14=
EXTT15=
EXTT16=
EXTT17=
EXTT18=
EXTT19=
EXTT20=
EXTT21=
EXTT22=
EXTT23=
EXTT24=
EXTT25=
EXTT26=
EXTT27=
EXTT28=
EXTT29=
EXTT30=
PLAYORDER=
